# Blender v2.82 (sub 7) OBJ File: 'SawBlade.blend'
# www.blender.org
mtllib BouncyDisc.mtl
o Torus
v 0.478637 0.000000 0.000000
v 0.450599 0.042206 0.000000
v 0.382910 0.059689 0.000000
v 0.085788 0.062571 -0.000000
v 0.222879 0.072003 0.072418
v 0.085788 -0.062571 -0.000000
v 0.382910 -0.059689 0.000000
v 0.450599 -0.042206 0.000000
v 0.455211 0.000000 -0.147907
v 0.428546 0.042206 -0.139243
v 0.364169 0.059689 -0.118326
v 0.081589 0.062571 -0.026510
v 0.189592 0.072003 0.137747
v 0.081589 -0.062571 -0.026510
v 0.364169 -0.059689 -0.118326
v 0.428546 -0.042206 -0.139243
v 0.387226 0.000000 -0.281336
v 0.364543 0.042206 -0.264855
v 0.309781 0.059689 -0.225069
v 0.069404 0.062571 -0.050424
v 0.137747 0.072003 0.189592
v 0.069404 -0.062571 -0.050424
v 0.309781 -0.059689 -0.225069
v 0.364543 -0.042206 -0.264855
v 0.281336 0.000000 -0.387225
v 0.264856 0.042206 -0.364542
v 0.225069 0.059689 -0.309780
v 0.050425 0.062571 -0.069403
v 0.072418 0.072003 0.222879
v 0.050425 -0.062571 -0.069403
v 0.225069 -0.059689 -0.309780
v 0.264856 -0.042206 -0.364542
v 0.147907 0.000000 -0.455211
v 0.139243 0.042206 -0.428545
v 0.118326 0.059689 -0.364169
v 0.026510 0.062571 -0.081589
v 0.000000 0.072003 0.234348
v 0.026510 -0.062571 -0.081589
v 0.118326 -0.059689 -0.364169
v 0.139243 -0.042206 -0.428545
v 0.000000 0.000000 -0.478637
v 0.000000 0.042206 -0.450599
v 0.000000 0.059689 -0.382910
v 0.000000 0.062571 -0.085787
v -0.072417 0.072003 0.222879
v 0.000000 -0.062571 -0.085787
v 0.000000 -0.059689 -0.382910
v 0.000000 -0.042206 -0.450599
v -0.147907 0.000000 -0.455211
v -0.139242 0.042206 -0.428545
v -0.118325 0.059689 -0.364169
v -0.026509 0.062571 -0.081589
v -0.137746 0.072003 0.189592
v -0.026509 -0.062571 -0.081589
v -0.118325 -0.059689 -0.364169
v -0.139242 -0.042206 -0.428545
v -0.281336 0.000000 -0.387225
v -0.264855 0.042206 -0.364542
v -0.225068 0.059689 -0.309780
v -0.050424 0.062571 -0.069403
v -0.189592 0.072003 0.137747
v -0.050424 -0.062571 -0.069403
v -0.225068 -0.059689 -0.309780
v -0.264855 -0.042206 -0.364542
v -0.387225 0.000000 -0.281336
v -0.364542 0.042206 -0.264855
v -0.309780 0.059689 -0.225069
v -0.069403 0.062571 -0.050424
v -0.222878 0.072003 0.072418
v -0.069403 -0.062571 -0.050424
v -0.309780 -0.059689 -0.225069
v -0.364542 -0.042206 -0.264855
v -0.455210 0.000000 -0.147907
v -0.428545 0.042206 -0.139243
v -0.364168 0.059689 -0.118326
v -0.081588 0.062571 -0.026510
v -0.234348 0.072003 0.000000
v -0.081588 -0.062571 -0.026510
v -0.364168 -0.059689 -0.118326
v -0.428545 -0.042206 -0.139243
v -0.478637 0.000000 -0.000000
v -0.450599 0.042206 -0.000000
v -0.382909 0.059689 -0.000000
v -0.085787 0.062571 0.000000
v -0.222878 0.072003 -0.072418
v -0.085787 -0.062571 0.000000
v -0.382909 -0.059689 -0.000000
v -0.450599 -0.042206 -0.000000
v -0.455211 0.000000 0.147907
v -0.428545 0.042206 0.139243
v -0.364168 0.059689 0.118325
v -0.081588 0.062571 0.026510
v -0.189592 0.072003 -0.137746
v -0.081588 -0.062571 0.026510
v -0.364168 -0.059689 0.118325
v -0.428545 -0.042206 0.139243
v -0.387225 0.000000 0.281336
v -0.364542 0.042206 0.264855
v -0.309780 0.059689 0.225069
v -0.069403 0.062571 0.050425
v -0.137746 0.072003 -0.189592
v -0.069403 -0.062571 0.050425
v -0.309780 -0.059689 0.225069
v -0.364542 -0.042206 0.264855
v -0.281336 0.000000 0.387225
v -0.264855 0.042206 0.364542
v -0.225068 0.059689 0.309780
v -0.050424 0.062571 0.069403
v -0.072417 0.072003 -0.222879
v -0.050424 -0.062571 0.069403
v -0.225068 -0.059689 0.309780
v -0.264855 -0.042206 0.364542
v -0.147907 0.000000 0.455211
v -0.139242 0.042206 0.428545
v -0.118325 0.059689 0.364169
v -0.026509 0.062571 0.081589
v 0.000000 0.072003 -0.234348
v -0.026509 -0.062571 0.081589
v -0.118325 -0.059689 0.364169
v -0.139242 -0.042206 0.428545
v 0.000000 0.000000 0.478637
v 0.000000 0.042206 0.450599
v 0.000000 0.059689 0.382910
v 0.000000 0.062571 0.085787
v 0.072418 0.072003 -0.222879
v 0.000000 -0.062571 0.085787
v 0.000000 -0.059689 0.382910
v 0.000000 -0.042206 0.450599
v 0.147907 0.000000 0.455211
v 0.139243 0.042206 0.428545
v 0.118326 0.059689 0.364169
v 0.026510 0.062571 0.081589
v 0.137747 0.072003 -0.189592
v 0.026510 -0.062571 0.081589
v 0.118326 -0.059689 0.364169
v 0.139243 -0.042206 0.428545
v 0.281336 0.000000 0.387226
v 0.264856 0.042206 0.364542
v 0.225069 0.059689 0.309781
v 0.050425 0.062571 0.069404
v 0.189592 0.072003 -0.137747
v 0.050425 -0.062571 0.069404
v 0.225069 -0.059689 0.309781
v 0.264856 -0.042206 0.364542
v 0.387226 0.000000 0.281336
v 0.364542 0.042206 0.264856
v 0.309781 0.059689 0.225069
v 0.069404 0.062571 0.050425
v 0.222879 0.072003 -0.072418
v 0.069404 -0.062571 0.050425
v 0.309781 -0.059689 0.225069
v 0.364542 -0.042206 0.264856
v 0.455211 0.000000 0.147907
v 0.428545 0.042206 0.139243
v 0.364169 0.059689 0.118326
v 0.081589 0.062571 0.026510
v 0.234349 0.072003 0.000000
v 0.081589 -0.062571 0.026510
v 0.364169 -0.059689 0.118326
v 0.428545 -0.042206 0.139243
v 0.234349 -0.072003 0.000000
v 0.222879 -0.072003 -0.072418
v 0.189592 -0.072003 -0.137747
v 0.137747 -0.072003 -0.189592
v 0.072418 -0.072003 -0.222879
v 0.000000 -0.072003 -0.234348
v -0.072417 -0.072003 -0.222879
v -0.137746 -0.072003 -0.189592
v -0.189592 -0.072003 -0.137746
v -0.222878 -0.072003 -0.072418
v -0.234348 -0.072003 0.000000
v -0.222878 -0.072003 0.072418
v -0.189592 -0.072003 0.137747
v -0.137746 -0.072003 0.189592
v -0.072417 -0.072003 0.222879
v 0.000000 -0.072003 0.234348
v 0.072418 -0.072003 0.222879
v 0.137747 -0.072003 0.189592
v 0.189592 -0.072003 0.137747
v 0.222879 -0.072003 0.072418
v 0.085788 0.062571 -0.000000
v 0.081589 0.062571 -0.026510
v 0.085788 -0.062571 -0.000000
v 0.081589 -0.062571 -0.026510
v 0.069404 0.062571 -0.050424
v 0.069404 -0.062571 -0.050424
v 0.050425 0.062571 -0.069403
v 0.050425 -0.062571 -0.069403
v 0.026510 0.062571 -0.081589
v 0.026510 -0.062571 -0.081589
v 0.000000 0.062571 -0.085787
v 0.000000 -0.062571 -0.085787
v -0.026509 0.062571 -0.081589
v -0.026509 -0.062571 -0.081589
v -0.050424 0.062571 -0.069403
v -0.050424 -0.062571 -0.069403
v -0.069403 0.062571 -0.050424
v -0.069403 -0.062571 -0.050424
v -0.081588 0.062571 -0.026510
v -0.081588 -0.062571 -0.026510
v -0.085787 0.062571 0.000000
v -0.085787 -0.062571 0.000000
v -0.081588 0.062571 0.026510
v -0.081588 -0.062571 0.026510
v -0.069403 0.062571 0.050425
v -0.069403 -0.062571 0.050425
v -0.050424 0.062571 0.069403
v -0.050424 -0.062571 0.069403
v -0.026509 0.062571 0.081589
v -0.026509 -0.062571 0.081589
v 0.000000 0.062571 0.085787
v 0.000000 -0.062571 0.085787
v 0.026510 0.062571 0.081589
v 0.026510 -0.062571 0.081589
v 0.050425 0.062571 0.069404
v 0.050425 -0.062571 0.069404
v 0.069404 0.062571 0.050425
v 0.069404 -0.062571 0.050425
v 0.081589 0.062571 0.026510
v 0.081589 -0.062571 0.026510
vt 0.550000 0.500000
vt 0.600000 0.500000
vt 0.600000 0.625000
vt 0.550000 0.625000
vt 0.600000 0.750000
vt 0.550000 0.750000
vt 0.550000 0.812500
vt 0.600000 0.812500
vt 0.600000 0.875000
vt 0.550000 0.875000
vt 0.650000 0.875000
vt 0.650000 0.125000
vt 0.600000 0.125000
vt 0.600000 0.875000
vt 0.500000 0.125000
vt 0.550000 0.125000
vt 0.550000 0.187500
vt 0.500000 0.187500
vt 0.600000 0.187500
vt 0.600000 0.250000
vt 0.550000 0.250000
vt 0.600000 0.375000
vt 0.550000 0.375000
vt 0.650000 0.500000
vt 0.650000 0.625000
vt 0.650000 0.750000
vt 0.650000 0.812500
vt 0.650000 0.875000
vt 0.700000 0.875000
vt 0.700000 0.125000
vt 0.650000 0.187500
vt 0.650000 0.250000
vt 0.650000 0.375000
vt 0.700000 0.500000
vt 0.700000 0.625000
vt 0.700000 0.750000
vt 0.700000 0.812500
vt 0.700000 0.875000
vt 0.750000 0.875000
vt 0.750000 0.125000
vt 0.700000 0.187500
vt 0.700000 0.250000
vt 0.700000 0.375000
vt 0.750000 0.500000
vt 0.750000 0.625000
vt 0.750000 0.750000
vt 0.750000 0.812500
vt 0.750000 0.875000
vt 0.800000 0.875000
vt 0.800000 0.125000
vt 0.750000 0.187500
vt 0.750000 0.250000
vt 0.750000 0.375000
vt 0.800000 0.500000
vt 0.800000 0.625000
vt 0.800000 0.750000
vt 0.800000 0.812500
vt 0.800000 0.875000
vt 0.850000 0.875000
vt 0.850000 0.125000
vt 0.800000 0.187500
vt 0.800000 0.250000
vt 0.800000 0.375000
vt 0.850000 0.500000
vt 0.850000 0.625000
vt 0.850000 0.750000
vt 0.850000 0.812500
vt 0.850000 0.875000
vt 0.900000 0.875000
vt 0.900000 0.125000
vt 0.850000 0.187500
vt 0.850000 0.250000
vt 0.850000 0.375000
vt 0.900000 0.500000
vt 0.900000 0.625000
vt 0.900000 0.750000
vt 0.900000 0.812500
vt 0.900000 0.875000
vt 0.950000 0.875000
vt 0.950000 0.125000
vt 0.900000 0.187500
vt 0.900000 0.250000
vt 0.900000 0.375000
vt 0.950000 0.500000
vt 0.950000 0.625000
vt 0.950000 0.750000
vt 0.950000 0.812500
vt 0.950000 0.875000
vt 1.000000 0.875000
vt 1.000000 0.125000
vt 0.950000 0.187500
vt 0.950000 0.250000
vt 0.950000 0.375000
vt 1.000000 0.500000
vt 1.000000 0.625000
vt 1.000000 0.750000
vt 1.000000 0.812500
vt 1.000000 0.875000
vt 0.050000 0.875000
vt 0.050000 0.125000
vt 0.000000 0.125000
vt 0.000000 0.875000
vt 1.000000 0.187500
vt 1.000000 0.250000
vt 1.000000 0.375000
vt 0.000000 0.500000
vt 0.050000 0.500000
vt 0.050000 0.625000
vt 0.000000 0.625000
vt 0.050000 0.750000
vt 0.000000 0.750000
vt 0.000000 0.812500
vt 0.050000 0.812500
vt 0.050000 0.875000
vt 0.000000 0.875000
vt 0.100000 0.875000
vt 0.100000 0.125000
vt 0.000000 0.187500
vt 0.050000 0.187500
vt 0.050000 0.250000
vt 0.000000 0.250000
vt 0.050000 0.375000
vt 0.000000 0.375000
vt 0.100000 0.500000
vt 0.100000 0.625000
vt 0.100000 0.750000
vt 0.100000 0.812500
vt 0.100000 0.875000
vt 0.150000 0.875000
vt 0.150000 0.125000
vt 0.100000 0.187500
vt 0.100000 0.250000
vt 0.100000 0.375000
vt 0.150000 0.500000
vt 0.150000 0.625000
vt 0.150000 0.750000
vt 0.150000 0.812500
vt 0.150000 0.875000
vt 0.200000 0.875000
vt 0.200000 0.125000
vt 0.150000 0.187500
vt 0.150000 0.250000
vt 0.150000 0.375000
vt 0.200000 0.500000
vt 0.200000 0.625000
vt 0.200000 0.750000
vt 0.200000 0.812500
vt 0.200000 0.875000
vt 0.250000 0.875000
vt 0.250000 0.125000
vt 0.200000 0.187500
vt 0.200000 0.250000
vt 0.200000 0.375000
vt 0.250000 0.500000
vt 0.250000 0.625000
vt 0.250000 0.750000
vt 0.250000 0.812500
vt 0.250000 0.875000
vt 0.300000 0.875000
vt 0.300000 0.125000
vt 0.250000 0.187500
vt 0.250000 0.250000
vt 0.250000 0.375000
vt 0.300000 0.500000
vt 0.300000 0.625000
vt 0.300000 0.750000
vt 0.300000 0.812500
vt 0.300000 0.875000
vt 0.350000 0.875000
vt 0.350000 0.125000
vt 0.300000 0.187500
vt 0.300000 0.250000
vt 0.300000 0.375000
vt 0.350000 0.500000
vt 0.350000 0.625000
vt 0.350000 0.750000
vt 0.350000 0.812500
vt 0.350000 0.875000
vt 0.400000 0.875000
vt 0.400000 0.125000
vt 0.350000 0.187500
vt 0.350000 0.250000
vt 0.350000 0.375000
vt 0.400000 0.500000
vt 0.400000 0.625000
vt 0.400000 0.750000
vt 0.400000 0.812500
vt 0.400000 0.875000
vt 0.450000 0.875000
vt 0.450000 0.125000
vt 0.400000 0.187500
vt 0.400000 0.250000
vt 0.400000 0.375000
vt 0.450000 0.500000
vt 0.450000 0.625000
vt 0.450000 0.750000
vt 0.450000 0.812500
vt 0.450000 0.875000
vt 0.500000 0.875000
vt 0.500000 0.125000
vt 0.450000 0.187500
vt 0.450000 0.250000
vt 0.450000 0.375000
vt 0.500000 0.500000
vt 0.500000 0.625000
vt 0.500000 0.750000
vt 0.500000 0.812500
vt 0.500000 0.875000
vt 0.550000 0.875000
vt 0.550000 0.125000
vt 0.500000 0.250000
vt 0.500000 0.375000
vt 0.450000 0.125000
vt 0.400000 0.125000
vt 0.350000 0.125000
vt 0.300000 0.125000
vt 0.250000 0.125000
vt 0.200000 0.125000
vt 0.150000 0.125000
vt 0.100000 0.125000
vt 0.050000 0.125000
vt 0.000000 0.125000
vt 0.950000 0.125000
vt 1.000000 0.125000
vt 0.900000 0.125000
vt 0.850000 0.125000
vt 0.800000 0.125000
vt 0.750000 0.125000
vt 0.700000 0.125000
vt 0.650000 0.125000
vt 0.600000 0.125000
vn 1.0000 0.0000 0.0000
vn 0.9510 0.0000 -0.3090
vn 0.5731 0.7980 -0.1862
vn 0.6026 0.7980 0.0000
vn 0.1666 0.9845 -0.0541
vn 0.1751 0.9845 0.0000
vn 0.0169 0.9998 0.0000
vn 0.0161 0.9998 -0.0052
vn -0.0602 0.9980 0.0196
vn -0.0634 0.9980 0.0000
vn -0.8090 0.0000 0.5878
vn -0.9510 0.0000 0.3090
vn -0.0602 -0.9980 -0.0196
vn -0.0634 -0.9980 0.0000
vn 0.0169 -0.9998 0.0000
vn 0.0161 -0.9998 0.0052
vn 0.0161 -0.9998 -0.0052
vn 0.1666 -0.9845 -0.0541
vn 0.1751 -0.9845 0.0000
vn 0.5731 -0.7980 -0.1862
vn 0.6026 -0.7980 0.0000
vn 0.8090 0.0000 -0.5878
vn 0.4875 0.7980 -0.3542
vn 0.1417 0.9845 -0.1029
vn 0.0137 0.9998 -0.0099
vn -0.0512 0.9980 0.0372
vn -0.5878 0.0000 0.8090
vn 0.0137 -0.9998 -0.0099
vn 0.1417 -0.9845 -0.1029
vn 0.4875 -0.7980 -0.3542
vn 0.5878 0.0000 -0.8090
vn 0.3542 0.7980 -0.4875
vn 0.1029 0.9845 -0.1417
vn 0.0099 0.9998 -0.0137
vn -0.0372 0.9980 0.0512
vn -0.3090 0.0000 0.9510
vn 0.0099 -0.9998 -0.0137
vn 0.1029 -0.9845 -0.1417
vn 0.3542 -0.7980 -0.4875
vn 0.3090 0.0000 -0.9510
vn 0.1862 0.7980 -0.5731
vn 0.0541 0.9845 -0.1666
vn 0.0052 0.9998 -0.0161
vn -0.0196 0.9980 0.0602
vn 0.0000 0.0000 1.0000
vn 0.0052 -0.9998 -0.0161
vn 0.0541 -0.9845 -0.1666
vn 0.1862 -0.7980 -0.5731
vn 0.0000 0.0000 -1.0000
vn 0.0000 0.7980 -0.6026
vn 0.0000 0.9845 -0.1751
vn 0.0000 0.9998 -0.0169
vn 0.0000 0.9980 0.0634
vn 0.3090 0.0000 0.9510
vn 0.0000 -0.9998 -0.0169
vn 0.0000 -0.9845 -0.1751
vn 0.0000 -0.7980 -0.6026
vn -0.3090 0.0000 -0.9510
vn -0.1862 0.7980 -0.5731
vn -0.0541 0.9845 -0.1666
vn -0.0052 0.9998 -0.0161
vn 0.0196 0.9980 0.0602
vn 0.5878 0.0000 0.8090
vn -0.0052 -0.9998 -0.0161
vn -0.0541 -0.9845 -0.1666
vn -0.1862 -0.7980 -0.5731
vn -0.5878 0.0000 -0.8090
vn -0.3542 0.7980 -0.4875
vn -0.1029 0.9845 -0.1417
vn -0.0099 0.9998 -0.0137
vn 0.0372 0.9980 0.0512
vn 0.8090 0.0000 0.5878
vn -0.0099 -0.9998 -0.0137
vn -0.1029 -0.9845 -0.1417
vn -0.3542 -0.7980 -0.4875
vn -0.8090 0.0000 -0.5878
vn -0.4875 0.7980 -0.3542
vn -0.1417 0.9845 -0.1029
vn -0.0137 0.9998 -0.0099
vn 0.0512 0.9980 0.0372
vn 0.9510 0.0000 0.3090
vn -0.0137 -0.9998 -0.0099
vn -0.1417 -0.9845 -0.1029
vn -0.4875 -0.7980 -0.3542
vn -0.9510 0.0000 -0.3090
vn -0.5731 0.7980 -0.1862
vn -0.1666 0.9845 -0.0541
vn -0.0161 0.9998 -0.0052
vn 0.0602 0.9980 0.0196
vn -0.0161 -0.9998 -0.0052
vn -0.1666 -0.9845 -0.0541
vn -0.5731 -0.7980 -0.1862
vn -1.0000 0.0000 0.0000
vn -0.6026 0.7980 0.0000
vn -0.1751 0.9845 0.0000
vn -0.0169 0.9998 0.0000
vn 0.0634 0.9980 0.0000
vn -0.0169 -0.9998 0.0000
vn -0.1751 -0.9845 0.0000
vn -0.6026 -0.7980 0.0000
vn -0.5731 0.7980 0.1862
vn -0.1666 0.9845 0.0541
vn -0.0161 0.9998 0.0052
vn 0.0602 0.9980 -0.0196
vn -0.0161 -0.9998 0.0052
vn -0.1666 -0.9845 0.0541
vn -0.5731 -0.7980 0.1862
vn -0.4875 0.7980 0.3542
vn -0.1417 0.9845 0.1029
vn -0.0137 0.9998 0.0099
vn 0.0512 0.9980 -0.0372
vn -0.0137 -0.9998 0.0099
vn -0.1417 -0.9845 0.1029
vn -0.4875 -0.7980 0.3542
vn -0.3542 0.7980 0.4875
vn -0.1029 0.9845 0.1417
vn -0.0099 0.9998 0.0137
vn 0.0372 0.9980 -0.0512
vn -0.0099 -0.9998 0.0137
vn -0.1029 -0.9845 0.1417
vn -0.3542 -0.7980 0.4875
vn -0.1862 0.7980 0.5731
vn -0.0541 0.9845 0.1666
vn -0.0052 0.9998 0.0161
vn 0.0196 0.9980 -0.0602
vn -0.0052 -0.9998 0.0161
vn -0.0541 -0.9845 0.1666
vn -0.1862 -0.7980 0.5731
vn 0.0000 0.7980 0.6026
vn 0.0000 0.9845 0.1751
vn 0.0000 0.9998 0.0169
vn 0.0000 0.9980 -0.0634
vn 0.0000 -0.9998 0.0169
vn 0.0000 -0.9845 0.1751
vn 0.0000 -0.7980 0.6026
vn 0.1862 0.7980 0.5731
vn 0.0541 0.9845 0.1666
vn 0.0052 0.9998 0.0161
vn -0.0196 0.9980 -0.0602
vn 0.0052 -0.9998 0.0161
vn 0.0541 -0.9845 0.1666
vn 0.1862 -0.7980 0.5731
vn 0.3542 0.7980 0.4875
vn 0.1029 0.9845 0.1417
vn 0.0099 0.9998 0.0137
vn -0.0372 0.9980 -0.0512
vn 0.0099 -0.9998 0.0137
vn 0.1029 -0.9845 0.1417
vn 0.3542 -0.7980 0.4875
vn 0.4875 0.7980 0.3542
vn 0.1417 0.9845 0.1029
vn 0.0137 0.9998 0.0099
vn -0.0512 0.9980 -0.0372
vn 0.0137 -0.9998 0.0099
vn 0.1417 -0.9845 0.1029
vn 0.4875 -0.7980 0.3542
vn 0.5731 0.7980 0.1862
vn 0.1666 0.9845 0.0541
vn 0.0161 0.9998 0.0052
vn -0.0602 0.9980 -0.0196
vn 0.1666 -0.9845 0.0541
vn 0.5731 -0.7980 0.1862
vn -0.0512 -0.9980 -0.0372
vn -0.0372 -0.9980 -0.0512
vn -0.0196 -0.9980 -0.0602
vn 0.0000 -0.9980 -0.0634
vn 0.0196 -0.9980 -0.0602
vn 0.0372 -0.9980 -0.0512
vn 0.0512 -0.9980 -0.0372
vn 0.0602 -0.9980 -0.0196
vn 0.0634 -0.9980 0.0000
vn 0.0602 -0.9980 0.0196
vn 0.0512 -0.9980 0.0372
vn 0.0372 -0.9980 0.0512
vn 0.0196 -0.9980 0.0602
vn 0.0000 -0.9980 0.0634
vn -0.0196 -0.9980 0.0602
vn -0.0372 -0.9980 0.0512
vn -0.0512 -0.9980 0.0372
vn -0.0602 -0.9980 0.0196
usemtl None
s 1
f 1/1/1 9/2/2 10/3/3 2/4/4
f 2/4/4 10/3/3 11/5/5 3/6/6
f 157/7/7 149/8/8 182/9/9 181/10/10
f 20/11/11 186/12/11 184/13/12 12/14/12
f 158/15/13 6/16/14 161/17/15 180/18/16
f 161/17/15 162/19/17 15/20/18 7/21/19
f 7/21/19 15/20/18 16/22/20 8/23/21
f 8/23/21 16/22/20 9/2/2 1/1/1
f 9/2/2 17/24/22 18/25/23 10/3/3
f 10/3/3 18/25/23 19/26/24 11/5/5
f 149/8/8 141/27/25 185/28/26 182/9/9
f 28/29/27 188/30/27 186/12/11 20/11/11
f 3/6/6 11/5/5 149/8/8 157/7/7
f 162/19/17 163/31/28 23/32/29 15/20/18
f 15/20/18 23/32/29 24/33/30 16/22/20
f 16/22/20 24/33/30 17/24/22 9/2/2
f 17/24/22 25/34/31 26/35/32 18/25/23
f 18/25/23 26/35/32 27/36/33 19/26/24
f 141/27/25 133/37/34 187/38/35 185/28/26
f 36/39/36 190/40/36 188/30/27 28/29/27
f 11/5/5 19/26/24 141/27/25 149/8/8
f 163/31/28 164/41/37 31/42/38 23/32/29
f 23/32/29 31/42/38 32/43/39 24/33/30
f 24/33/30 32/43/39 25/34/31 17/24/22
f 25/34/31 33/44/40 34/45/41 26/35/32
f 26/35/32 34/45/41 35/46/42 27/36/33
f 133/37/34 125/47/43 189/48/44 187/38/35
f 44/49/45 192/50/45 190/40/36 36/39/36
f 19/26/24 27/36/33 133/37/34 141/27/25
f 164/41/37 165/51/46 39/52/47 31/42/38
f 31/42/38 39/52/47 40/53/48 32/43/39
f 32/43/39 40/53/48 33/44/40 25/34/31
f 33/44/40 41/54/49 42/55/50 34/45/41
f 34/45/41 42/55/50 43/56/51 35/46/42
f 125/47/43 117/57/52 191/58/53 189/48/44
f 52/59/54 194/60/54 192/50/45 44/49/45
f 27/36/33 35/46/42 125/47/43 133/37/34
f 165/51/46 166/61/55 47/62/56 39/52/47
f 39/52/47 47/62/56 48/63/57 40/53/48
f 40/53/48 48/63/57 41/54/49 33/44/40
f 41/54/49 49/64/58 50/65/59 42/55/50
f 42/55/50 50/65/59 51/66/60 43/56/51
f 117/57/52 109/67/61 193/68/62 191/58/53
f 60/69/63 196/70/63 194/60/54 52/59/54
f 35/46/42 43/56/51 117/57/52 125/47/43
f 166/61/55 167/71/64 55/72/65 47/62/56
f 47/62/56 55/72/65 56/73/66 48/63/57
f 48/63/57 56/73/66 49/64/58 41/54/49
f 49/64/58 57/74/67 58/75/68 50/65/59
f 50/65/59 58/75/68 59/76/69 51/66/60
f 109/67/61 101/77/70 195/78/71 193/68/62
f 68/79/72 198/80/72 196/70/63 60/69/63
f 43/56/51 51/66/60 109/67/61 117/57/52
f 167/71/64 168/81/73 63/82/74 55/72/65
f 55/72/65 63/82/74 64/83/75 56/73/66
f 56/73/66 64/83/75 57/74/67 49/64/58
f 57/74/67 65/84/76 66/85/77 58/75/68
f 58/75/68 66/85/77 67/86/78 59/76/69
f 101/77/70 93/87/79 197/88/80 195/78/71
f 76/89/81 200/90/81 198/80/72 68/79/72
f 51/66/60 59/76/69 101/77/70 109/67/61
f 168/81/73 169/91/82 71/92/83 63/82/74
f 63/82/74 71/92/83 72/93/84 64/83/75
f 64/83/75 72/93/84 65/84/76 57/74/67
f 65/84/76 73/94/85 74/95/86 66/85/77
f 66/85/77 74/95/86 75/96/87 67/86/78
f 93/87/79 85/97/88 199/98/89 197/88/80
f 84/99/1 202/100/1 200/101/81 76/102/81
f 59/76/69 67/86/78 93/87/79 101/77/70
f 169/91/82 170/103/90 79/104/91 71/92/83
f 71/92/83 79/104/91 80/105/92 72/93/84
f 72/93/84 80/105/92 73/94/85 65/84/76
f 73/106/85 81/107/93 82/108/94 74/109/86
f 74/109/86 82/108/94 83/110/95 75/111/87
f 85/112/88 77/113/96 201/114/97 199/115/89
f 92/116/2 204/117/2 202/100/1 84/99/1
f 67/86/78 75/96/87 85/97/88 93/87/79
f 170/118/90 171/119/98 87/120/99 79/121/91
f 79/121/91 87/120/99 88/122/100 80/123/92
f 80/123/92 88/122/100 81/107/93 73/106/85
f 81/107/93 89/124/12 90/125/101 82/108/94
f 82/108/94 90/125/101 91/126/102 83/110/95
f 77/113/96 69/127/103 203/128/104 201/114/97
f 100/129/22 206/130/22 204/117/2 92/116/2
f 75/111/87 83/110/95 77/113/96 85/112/88
f 171/119/98 172/131/105 95/132/106 87/120/99
f 87/120/99 95/132/106 96/133/107 88/122/100
f 88/122/100 96/133/107 89/124/12 81/107/93
f 89/124/12 97/134/11 98/135/108 90/125/101
f 90/125/101 98/135/108 99/136/109 91/126/102
f 69/127/103 61/137/110 205/138/111 203/128/104
f 108/139/31 208/140/31 206/130/22 100/129/22
f 83/110/95 91/126/102 69/127/103 77/113/96
f 172/131/105 173/141/112 103/142/113 95/132/106
f 95/132/106 103/142/113 104/143/114 96/133/107
f 96/133/107 104/143/114 97/134/11 89/124/12
f 97/134/11 105/144/27 106/145/115 98/135/108
f 98/135/108 106/145/115 107/146/116 99/136/109
f 61/137/110 53/147/117 207/148/118 205/138/111
f 116/149/40 210/150/40 208/140/31 108/139/31
f 91/126/102 99/136/109 61/137/110 69/127/103
f 173/141/112 174/151/119 111/152/120 103/142/113
f 103/142/113 111/152/120 112/153/121 104/143/114
f 104/143/114 112/153/121 105/144/27 97/134/11
f 105/144/27 113/154/36 114/155/122 106/145/115
f 106/145/115 114/155/122 115/156/123 107/146/116
f 53/147/117 45/157/124 209/158/125 207/148/118
f 124/159/49 212/160/49 210/150/40 116/149/40
f 99/136/109 107/146/116 53/147/117 61/137/110
f 174/151/119 175/161/126 119/162/127 111/152/120
f 111/152/120 119/162/127 120/163/128 112/153/121
f 112/153/121 120/163/128 113/154/36 105/144/27
f 113/154/36 121/164/45 122/165/129 114/155/122
f 114/155/122 122/165/129 123/166/130 115/156/123
f 45/157/124 37/167/131 211/168/132 209/158/125
f 132/169/58 214/170/58 212/160/49 124/159/49
f 107/146/116 115/156/123 45/157/124 53/147/117
f 175/161/126 176/171/133 127/172/134 119/162/127
f 119/162/127 127/172/134 128/173/135 120/163/128
f 120/163/128 128/173/135 121/164/45 113/154/36
f 121/164/45 129/174/54 130/175/136 122/165/129
f 122/165/129 130/175/136 131/176/137 123/166/130
f 37/167/131 29/177/138 213/178/139 211/168/132
f 140/179/67 216/180/67 214/170/58 132/169/58
f 115/156/123 123/166/130 37/167/131 45/157/124
f 176/171/133 177/181/140 135/182/141 127/172/134
f 127/172/134 135/182/141 136/183/142 128/173/135
f 128/173/135 136/183/142 129/174/54 121/164/45
f 129/174/54 137/184/63 138/185/143 130/175/136
f 130/175/136 138/185/143 139/186/144 131/176/137
f 29/177/138 21/187/145 215/188/146 213/178/139
f 148/189/76 218/190/76 216/180/67 140/179/67
f 123/166/130 131/176/137 29/177/138 37/167/131
f 177/181/140 178/191/147 143/192/148 135/182/141
f 135/182/141 143/192/148 144/193/149 136/183/142
f 136/183/142 144/193/149 137/184/63 129/174/54
f 137/184/63 145/194/72 146/195/150 138/185/143
f 138/185/143 146/195/150 147/196/151 139/186/144
f 21/187/145 13/197/152 217/198/153 215/188/146
f 156/199/85 220/200/85 218/190/76 148/189/76
f 131/176/137 139/186/144 21/187/145 29/177/138
f 178/191/147 179/201/154 151/202/155 143/192/148
f 143/192/148 151/202/155 152/203/156 144/193/149
f 144/193/149 152/203/156 145/194/72 137/184/63
f 145/194/72 153/204/81 154/205/157 146/195/150
f 146/195/150 154/205/157 155/206/158 147/196/151
f 13/197/152 5/207/159 219/208/160 217/198/153
f 4/209/93 183/210/93 220/200/85 156/199/85
f 139/186/144 147/196/151 13/197/152 21/187/145
f 179/201/154 180/18/16 159/211/161 151/202/155
f 151/202/155 159/211/161 160/212/162 152/203/156
f 152/203/156 160/212/162 153/204/81 145/194/72
f 153/204/81 1/1/1 2/4/4 154/205/157
f 154/205/157 2/4/4 3/6/6 155/206/158
f 5/207/159 157/7/7 181/10/10 219/208/160
f 155/206/158 3/6/6 157/7/7 5/207/159
f 147/196/151 155/206/158 5/207/159 13/197/152
f 180/18/16 161/17/15 7/21/19 159/211/161
f 159/211/161 7/21/19 8/23/21 160/212/162
f 160/212/162 8/23/21 1/1/1 153/204/81
f 12/14/12 184/13/12 183/210/93 4/209/93
f 150/213/163 158/15/13 180/18/16 179/201/154
f 142/214/164 150/213/163 179/201/154 178/191/147
f 134/215/165 142/214/164 178/191/147 177/181/140
f 126/216/166 134/215/165 177/181/140 176/171/133
f 118/217/167 126/216/166 176/171/133 175/161/126
f 110/218/168 118/217/167 175/161/126 174/151/119
f 102/219/169 110/218/168 174/151/119 173/141/112
f 94/220/170 102/219/169 173/141/112 172/131/105
f 86/221/171 94/220/170 172/131/105 171/119/98
f 78/222/172 86/221/171 171/119/98 170/118/90
f 70/223/173 78/224/172 170/103/90 169/91/82
f 62/225/174 70/223/173 169/91/82 168/81/73
f 54/226/175 62/225/174 168/81/73 167/71/64
f 46/227/176 54/226/175 167/71/64 166/61/55
f 38/228/177 46/227/176 166/61/55 165/51/46
f 30/229/178 38/228/177 165/51/46 164/41/37
f 22/230/179 30/229/178 164/41/37 163/31/28
f 14/231/180 22/230/179 163/31/28 162/19/17
f 6/16/14 14/231/180 162/19/17 161/17/15
